<svg width="24" height="24" viewBox="0 0 24 24" fill="none" xmlns="http://www.w3.org/2000/svg">
<path fill-rule="evenodd" clip-rule="evenodd" d="M16.4109 2.76874L16.4119 3.51837C19.1665 3.73426 20.9862 5.61132 20.9891 8.48988L21 16.9157C21.0039 20.0541 19.0322 21.9851 15.8718 21.9901L8.15189 22.0001C5.0112 22.0041 3.01482 20.0271 3.01087 16.8797L3.00001 8.55285C2.99606 5.6553 4.75153 3.78323 7.50618 3.53036L7.50519 2.78074C7.5042 2.34096 7.83002 2.01012 8.26445 2.01012C8.69887 2.00912 9.02469 2.33896 9.02568 2.77874L9.02666 3.47839L14.8914 3.47039L14.8904 2.77074C14.8894 2.33096 15.2152 2.00113 15.6497 2.00013C16.0742 1.99913 16.4099 2.32896 16.4109 2.76874ZM4.52149 8.86169L19.4696 8.8417V8.49188C19.4272 6.34295 18.349 5.21552 16.4139 5.0476L16.4148 5.81721C16.4148 6.247 16.0801 6.58783 15.6556 6.58783C15.2212 6.58883 14.8944 6.249 14.8944 5.81921L14.8934 5.00962L9.02864 5.01762L9.02962 5.82621C9.02962 6.25699 8.70479 6.59682 8.27037 6.59682C7.83595 6.59782 7.50914 6.25899 7.50914 5.82821L7.50815 5.05859C5.58286 5.2515 4.51754 6.38293 4.5205 8.55085L4.52149 8.86169ZM15.2399 13.4044V13.4154C15.2498 13.8752 15.625 14.224 16.0801 14.214C16.5244 14.203 16.8789 13.8222 16.869 13.3624C16.8483 12.9227 16.4918 12.5638 16.0485 12.5648C15.5944 12.5748 15.2389 12.9446 15.2399 13.4044ZM16.0554 17.8922C15.6013 17.8822 15.235 17.5034 15.234 17.0436C15.2241 16.5838 15.5884 16.203 16.0426 16.192H16.0525C16.5165 16.192 16.8927 16.5708 16.8927 17.0406C16.8937 17.5104 16.5185 17.8912 16.0554 17.8922ZM11.1721 13.4204C11.1919 13.8802 11.568 14.239 12.0222 14.219C12.4665 14.198 12.821 13.8182 12.8012 13.3584C12.7904 12.9087 12.425 12.5588 11.9807 12.5598C11.5266 12.5798 11.1711 12.9606 11.1721 13.4204ZM12.0262 17.8472C11.572 17.8672 11.1968 17.5084 11.1761 17.0486C11.1761 16.5888 11.5305 16.209 11.9847 16.188C12.429 16.187 12.7953 16.5368 12.8052 16.9856C12.8259 17.4464 12.4705 17.8262 12.0262 17.8472ZM7.10434 13.4554C7.12408 13.9152 7.50025 14.275 7.95442 14.254C8.39872 14.234 8.75317 13.8532 8.73244 13.3934C8.72257 12.9436 8.35725 12.5938 7.91197 12.5948C7.4578 12.6148 7.10335 12.9956 7.10434 13.4554ZM7.95837 17.8522C7.5042 17.8732 7.12902 17.5134 7.10828 17.0536C7.1073 16.5938 7.46274 16.213 7.91691 16.193C8.3612 16.192 8.7275 16.5418 8.73738 16.9916C8.75811 17.4514 8.40366 17.8322 7.95837 17.8522Z" fill="#1C1C1C"/>
</svg>
