<svg width="24" height="24" viewBox="0 0 24 24" fill="none" xmlns="http://www.w3.org/2000/svg">
<path fill-rule="evenodd" clip-rule="evenodd" d="M2 12.0151C2 6.74724 6.21 2.00012 12.02 2.00012C17.7 2.00012 22 6.65711 22 11.9851C22 18.1644 16.96 22.0001 12 22.0001C10.36 22.0001 8.54 21.5595 7.08 20.6982C6.57 20.3877 6.14 20.1574 5.59 20.3376L3.57 20.9385C3.06 21.0988 2.6 20.6982 2.75 20.1574L3.42 17.914C3.53 17.6035 3.51 17.273 3.35 17.0126C2.49 15.4303 2 13.6977 2 12.0151ZM10.7 12.0151C10.7 12.7262 11.27 13.2971 11.98 13.3071C12.69 13.3071 13.26 12.7262 13.26 12.0252C13.26 11.3141 12.69 10.7432 11.98 10.7432C11.28 10.7332 10.7 11.3141 10.7 12.0151ZM15.31 12.0252C15.31 12.7262 15.88 13.3071 16.59 13.3071C17.3 13.3071 17.87 12.7262 17.87 12.0252C17.87 11.3141 17.3 10.7432 16.59 10.7432C15.88 10.7432 15.31 11.3141 15.31 12.0252ZM7.37 13.3071C6.67 13.3071 6.09 12.7262 6.09 12.0252C6.09 11.3141 6.66 10.7432 7.37 10.7432C8.08 10.7432 8.65 11.3141 8.65 12.0252C8.65 12.7262 8.08 13.2971 7.37 13.3071Z" fill="#1C1C1C"/>
</svg>
