<svg width="140" height="150" viewBox="0 0 140 150" fill="none" xmlns="http://www.w3.org/2000/svg">
<rect x="0.25" y="0.25" width="139.5" height="149.5" rx="7.75" stroke="#777777" stroke-width="0.5"/>
<g opacity="0.7">
<path d="M85.9492 30.7262C78.3703 32.1475 73.0607 46.6453 93.5281 64.8386" stroke="#CACACA" stroke-width="2.8427"/>
<path d="M106.32 30.7262C113.899 32.1475 119.209 46.6453 98.7413 64.8386" stroke="#CACACA" stroke-width="2.8427"/>
<path d="M83.1066 53.4678C83.1066 54.8891 94.4774 66.2599 95.8987 66.2599C97.3201 66.2599 108.691 54.8891 108.691 53.4678" stroke="#1E1E1E" stroke-width="3.97978" stroke-linecap="round"/>
<path d="M95.8986 64.8385C94.4772 79.5258 78.8424 96.1082 50.4154 73.3666C47.0989 71.4715 39.0446 67.6812 36.2019 86.1587" stroke="#1E1E1E" stroke-width="4.26405"/>
<circle cx="34.7806" cy="91.8442" r="5.6854" fill="white" stroke="#1C1C1C" stroke-width="2.8427"/>
<circle cx="87.3705" cy="30.7261" r="2.8427" fill="#1E1E1E"/>
<circle cx="104.427" cy="30.7261" r="2.8427" fill="#1E1E1E"/>
</g>
<path d="M40.66 129V114.9H45.54C47.1267 114.9 48.4667 115.173 49.56 115.72C50.6667 116.267 51.5 117.067 52.06 118.12C52.6333 119.16 52.92 120.433 52.92 121.94C52.92 123.433 52.6333 124.707 52.06 125.76C51.5 126.813 50.6667 127.62 49.56 128.18C48.4667 128.727 47.1267 129 45.54 129H40.66ZM42.74 127.26H45.42C47.2333 127.26 48.58 126.82 49.46 125.94C50.3533 125.06 50.8 123.727 50.8 121.94C50.8 120.153 50.3533 118.827 49.46 117.96C48.58 117.08 47.2333 116.64 45.42 116.64H42.74V127.26ZM59.4781 129.18C58.4781 129.18 57.6115 128.973 56.8781 128.56C56.1448 128.133 55.5781 127.533 55.1781 126.76C54.7781 125.973 54.5781 125.04 54.5781 123.96C54.5781 122.88 54.7781 121.953 55.1781 121.18C55.5781 120.393 56.1448 119.793 56.8781 119.38C57.6115 118.953 58.4781 118.74 59.4781 118.74C60.4781 118.74 61.3448 118.953 62.0781 119.38C62.8248 119.793 63.3981 120.393 63.7981 121.18C64.2115 121.953 64.4181 122.88 64.4181 123.96C64.4181 125.04 64.2115 125.973 63.7981 126.76C63.3981 127.533 62.8248 128.133 62.0781 128.56C61.3448 128.973 60.4781 129.18 59.4781 129.18ZM59.4781 127.6C60.3581 127.6 61.0581 127.293 61.5781 126.68C62.0981 126.067 62.3581 125.16 62.3581 123.96C62.3581 122.76 62.0981 121.86 61.5781 121.26C61.0581 120.647 60.3581 120.34 59.4781 120.34C58.6115 120.34 57.9181 120.647 57.3981 121.26C56.8781 121.86 56.6181 122.76 56.6181 123.96C56.6181 125.16 56.8715 126.067 57.3781 126.68C57.8981 127.293 58.5981 127.6 59.4781 127.6ZM70.7992 129.18C69.7859 129.18 68.8992 128.973 68.1392 128.56C67.3926 128.133 66.8126 127.527 66.3992 126.74C65.9992 125.94 65.7992 124.993 65.7992 123.9C65.7992 122.82 66.0059 121.893 66.4192 121.12C66.8326 120.347 67.4126 119.76 68.1592 119.36C68.9059 118.947 69.7859 118.74 70.7992 118.74C71.4526 118.74 72.0859 118.853 72.6992 119.08C73.3126 119.293 73.8192 119.6 74.2192 120L73.5592 121.42C73.1859 121.06 72.7659 120.793 72.2992 120.62C71.8326 120.433 71.3792 120.34 70.9392 120.34C69.9792 120.34 69.2259 120.647 68.6792 121.26C68.1326 121.873 67.8592 122.76 67.8592 123.92C67.8592 125.093 68.1326 125.993 68.6792 126.62C69.2259 127.247 69.9792 127.56 70.9392 127.56C71.3659 127.56 71.8126 127.48 72.2792 127.32C72.7459 127.147 73.1726 126.873 73.5592 126.5L74.2192 127.92C73.8059 128.32 73.2859 128.633 72.6592 128.86C72.0459 129.073 71.4259 129.18 70.7992 129.18ZM79.8992 129.18C78.8059 129.18 77.9792 128.887 77.4192 128.3C76.8592 127.7 76.5792 126.807 76.5792 125.62V120.48H74.6192V118.92H76.5792V116.26L78.5992 115.72V118.92H81.3992V120.48H78.5992V125.44C78.5992 126.187 78.7326 126.72 78.9992 127.04C79.2659 127.36 79.6526 127.52 80.1592 127.52C80.4126 127.52 80.6326 127.5 80.8192 127.46C81.0192 127.407 81.1992 127.347 81.3592 127.28V128.92C81.1592 129 80.9259 129.06 80.6592 129.1C80.3926 129.153 80.1392 129.18 79.8992 129.18ZM87.0672 129.18C86.0672 129.18 85.2005 128.973 84.4672 128.56C83.7339 128.133 83.1672 127.533 82.7672 126.76C82.3672 125.973 82.1672 125.04 82.1672 123.96C82.1672 122.88 82.3672 121.953 82.7672 121.18C83.1672 120.393 83.7339 119.793 84.4672 119.38C85.2005 118.953 86.0672 118.74 87.0672 118.74C88.0672 118.74 88.9339 118.953 89.6672 119.38C90.4139 119.793 90.9872 120.393 91.3872 121.18C91.8005 121.953 92.0072 122.88 92.0072 123.96C92.0072 125.04 91.8005 125.973 91.3872 126.76C90.9872 127.533 90.4139 128.133 89.6672 128.56C88.9339 128.973 88.0672 129.18 87.0672 129.18ZM87.0672 127.6C87.9472 127.6 88.6472 127.293 89.1672 126.68C89.6872 126.067 89.9472 125.16 89.9472 123.96C89.9472 122.76 89.6872 121.86 89.1672 121.26C88.6472 120.647 87.9472 120.34 87.0672 120.34C86.2005 120.34 85.5072 120.647 84.9872 121.26C84.4672 121.86 84.2072 122.76 84.2072 123.96C84.2072 125.16 84.4605 126.067 84.9672 126.68C85.4872 127.293 86.1872 127.6 87.0672 127.6ZM93.9283 129V121.42C93.9283 121.007 93.9149 120.593 93.8883 120.18C93.8749 119.753 93.8483 119.333 93.8083 118.92H95.7683L95.9883 121.52H95.6683C95.8016 120.893 96.0283 120.373 96.3483 119.96C96.6683 119.547 97.0549 119.24 97.5083 119.04C97.9749 118.84 98.4616 118.74 98.9683 118.74C99.1816 118.74 99.3616 118.753 99.5083 118.78C99.6549 118.793 99.8016 118.82 99.9483 118.86L99.9283 120.66C99.7016 120.567 99.5016 120.513 99.3283 120.5C99.1683 120.473 98.9683 120.46 98.7283 120.46C98.1416 120.46 97.6416 120.593 97.2283 120.86C96.8149 121.113 96.5016 121.46 96.2883 121.9C96.0749 122.34 95.9683 122.813 95.9683 123.32V129H93.9283Z" fill="#1C1C1C"/>
</svg>
