<svg width="252" height="86" viewBox="0 0 252 86" fill="none" xmlns="http://www.w3.org/2000/svg">
<rect width="252" height="86" fill="white"/>
<path fill-rule="evenodd" clip-rule="evenodd" d="M55.8489 17.3646C55.8489 14.614 56.9415 11.976 58.8865 10.0311C60.8315 8.08609 63.4695 6.99341 66.2201 6.99341C68.9707 6.99341 71.6086 8.08609 73.5536 10.0311C75.4986 11.976 76.5913 14.614 76.5913 17.3646C76.5913 20.1152 75.4986 22.7532 73.5536 24.6982C71.6086 26.6431 68.9707 27.7358 66.2201 27.7358C63.4695 27.7358 60.8315 26.6431 58.8865 24.6982C56.9415 22.7532 55.8489 20.1152 55.8489 17.3646ZM45.8182 34.3528C47.9293 32.3486 50.7293 31.2313 53.6402 31.2313C56.5512 31.2313 59.3511 32.3486 61.4623 34.3528L61.5071 34.3976L66.2201 39.1105L70.9375 34.3976L70.9823 34.3528C73.093 32.3512 75.8911 31.2355 78.7999 31.2355C81.7088 31.2355 84.5068 32.3512 86.6175 34.3528C87.6659 35.3471 88.5011 36.5443 89.0723 37.8716C89.6435 39.1989 89.9386 40.6285 89.9399 42.0734C89.9412 43.5184 89.6485 44.9485 89.0796 46.2767C88.5108 47.605 87.6776 48.8037 86.631 49.7998L67.7791 68.123C67.361 68.5294 66.8009 68.7568 66.2178 68.7568C65.6348 68.7568 65.0747 68.5294 64.6566 68.123L45.8092 49.7998C44.7629 48.804 43.9301 47.6059 43.3612 46.2782C42.7924 44.9505 42.4995 43.521 42.5004 42.0766C42.5012 40.6322 42.7958 39.2031 43.3661 37.876C43.9365 36.549 44.7707 35.3473 45.8182 34.3528Z" fill="#3F38FF"/>
<path fill-rule="evenodd" clip-rule="evenodd" d="M82.9866 28.3369C83.6984 22.3471 81.0802 17.7208 76.759 16.9104L76.2895 19.4138C78.759 19.8769 81.0844 22.76 80.4573 28.0364C79.8372 33.2549 76.2566 40.5033 67.2264 48.5301L68.9186 50.4338C78.2273 42.1594 82.2679 34.3846 82.9866 28.3369Z" fill="#CACACA"/>
<path fill-rule="evenodd" clip-rule="evenodd" d="M48.0414 28.3369C47.3296 22.3471 50.4172 17.7208 54.7384 16.9104L55.2079 19.4138C52.7384 19.8769 49.9436 22.76 50.5706 28.0364C51.1908 33.2549 54.7714 40.5033 63.8015 48.5301L62.1094 50.4338C52.8007 42.1594 48.7601 34.3846 48.0414 28.3369Z" fill="#CACACA"/>
<path fill-rule="evenodd" clip-rule="evenodd" d="M55.7975 38.8754C55.6093 38.0925 54.9045 37.5107 54.0639 37.5107C53.0792 37.5107 52.2809 38.309 52.2809 39.2937C52.2809 39.8376 52.5087 40.2849 52.5956 40.4527C52.722 40.6965 52.8818 40.9439 53.0448 41.1761C53.3744 41.6457 53.8203 42.1985 54.3237 42.7841C55.3372 43.9631 56.6836 45.39 58.0565 46.7629C59.4293 48.1357 60.8562 49.4822 62.0352 50.4957C62.6208 50.9991 63.1736 51.4449 63.6432 51.7745C63.8754 51.9375 64.1228 52.0973 64.3666 52.2237C64.5344 52.3106 64.9818 52.5384 65.5256 52.5384C66.0695 52.5384 66.5169 52.3106 66.6847 52.2237C66.9285 52.0973 67.1759 51.9375 67.4081 51.7745C67.8777 51.4449 68.4305 50.9991 69.0161 50.4957C70.1951 49.4822 71.622 48.1357 72.9948 46.7629C74.3676 45.39 75.7141 43.9631 76.7276 42.7841C77.231 42.1985 77.6769 41.6457 78.0065 41.1761C78.1695 40.9439 78.3293 40.6965 78.4556 40.4527C78.5426 40.2849 78.7703 39.8376 78.7703 39.2937C78.7703 38.309 77.9721 37.5107 76.9874 37.5107C76.1468 37.5107 75.442 38.0925 75.2538 38.8754C75.2203 38.9315 75.167 39.0146 75.0878 39.1275C74.8553 39.4588 74.4952 39.9109 74.0236 40.4596C73.087 41.5491 71.8068 42.908 70.4734 44.2414C69.1399 45.5748 67.781 46.855 66.6915 47.7916C66.2296 48.1887 65.8362 48.5066 65.5256 48.736C65.2151 48.5066 64.8216 48.1887 64.3597 47.7916C63.2702 46.855 61.9114 45.5748 60.5779 44.2414C59.2445 42.908 57.9643 41.5491 57.0277 40.4596C56.5561 39.9109 56.196 39.4588 55.9635 39.1275C55.8843 39.0146 55.831 38.9315 55.7975 38.8754ZM65.0438 49.0577C64.9966 49.0822 65.0008 49.0748 65.0462 49.0565C65.0454 49.0569 65.0446 49.0573 65.0438 49.0577ZM66.0051 49.0565C66.0505 49.0748 66.0547 49.0822 66.0075 49.0577C66.0067 49.0573 66.0059 49.0569 66.0051 49.0565ZM75.2897 38.8119C75.2893 38.8126 75.2889 38.8134 75.2885 38.8142C75.3067 38.7689 75.3142 38.7647 75.2897 38.8119ZM55.7628 38.8142C55.7624 38.8134 55.762 38.8126 55.7616 38.8119C55.7371 38.7647 55.7446 38.7689 55.7628 38.8142Z" fill="#1E1E1E"/>
<path fill-rule="evenodd" clip-rule="evenodd" d="M53.497 64.1116C59.5183 61.6377 63.0359 55.3756 63.6241 49.2979L67.4269 49.6659C66.7416 56.7479 62.618 64.4947 54.9489 67.6455C47.2136 70.8236 36.6453 69.0266 23.699 58.7103C22.1956 57.8658 20.4728 57.1689 18.9617 57.7797C17.4838 58.3772 15.1835 60.6977 13.9254 68.8753L10.1492 68.2943C11.4382 59.9161 14.0198 55.6566 17.5298 54.2376C20.9644 52.8492 24.2813 54.6421 25.7204 55.4644L25.8497 55.5383L25.9659 55.6313C38.4356 65.6071 47.5657 66.5484 53.497 64.1116Z" fill="#1E1E1E"/>
<path fill-rule="evenodd" clip-rule="evenodd" d="M10.7638 77.4995C12.8738 77.4995 14.5843 75.789 14.5843 73.6789C14.5843 71.5689 12.8738 69.8583 10.7638 69.8583C8.65371 69.8583 6.94318 71.5689 6.94318 73.6789C6.94318 75.789 8.65371 77.4995 10.7638 77.4995ZM10.7638 80.0466C14.2805 80.0466 17.1314 77.1957 17.1314 73.6789C17.1314 70.1622 14.2805 67.3113 10.7638 67.3113C7.24701 67.3113 4.39612 70.1622 4.39612 73.6789C4.39612 77.1957 7.24701 80.0466 10.7638 80.0466Z" fill="#1C1C1C"/>
<path d="M78.4822 18.0212C78.4822 19.4279 77.3419 20.5682 75.9352 20.5682C74.5285 20.5682 73.3881 19.4279 73.3881 18.0212C73.3881 16.6145 74.5285 15.4741 75.9352 15.4741C77.3419 15.4741 78.4822 16.6145 78.4822 18.0212Z" fill="#1E1E1E"/>
<path d="M53.958 18.0212C53.958 19.4279 55.0984 20.5682 56.5051 20.5682C57.9118 20.5682 59.0521 19.4279 59.0521 18.0212C59.0521 16.6145 57.9118 15.4741 56.5051 15.4741C55.0984 15.4741 53.958 16.6145 53.958 18.0212Z" fill="#1E1E1E"/>
<path d="M76.0761 17.2662C76.0761 22.7095 71.6635 27.1222 66.2201 27.1222C60.7768 27.1222 56.3641 22.7095 56.3641 17.2662C56.3641 11.8228 60.7768 7.41016 66.2201 7.41016C71.6635 7.41016 76.0761 11.8228 76.0761 17.2662Z" fill="#3F38FF"/>
<path d="M118.419 56.9609C115.823 56.9609 113.595 56.4098 111.733 55.3077C109.872 54.1812 108.439 52.626 107.435 50.6423C106.431 48.634 105.929 46.3197 105.929 43.6992C105.929 41.0787 106.431 38.7643 107.435 36.756C108.439 34.7478 109.872 33.1804 111.733 32.0538C113.595 30.9273 115.823 30.364 118.419 30.364C121.505 30.364 124.028 31.1354 125.987 32.6784C127.971 34.1968 129.207 36.3397 129.697 39.1072H124.517C124.199 37.7112 123.513 36.6214 122.46 35.8377C121.432 35.0295 120.06 34.6254 118.346 34.6254C115.97 34.6254 114.109 35.4336 112.762 37.0499C111.415 38.6663 110.741 40.8827 110.741 43.6992C110.741 46.5156 111.415 48.732 112.762 50.3484C114.109 51.9403 115.97 52.7362 118.346 52.7362C120.06 52.7362 121.432 52.3689 122.46 51.6341C123.513 50.8749 124.199 49.8341 124.517 48.5116H129.697C129.207 51.1566 127.971 53.226 125.987 54.72C124.028 56.2139 121.505 56.9609 118.419 56.9609ZM132.28 56.52V30.0701H136.982V56.52H132.28ZM142.852 35.4703C141.995 35.4703 141.285 35.2131 140.721 34.6988C140.183 34.1845 139.913 33.5355 139.913 32.7518C139.913 31.9681 140.183 31.3314 140.721 30.8416C141.285 30.3273 141.995 30.0701 142.852 30.0701C143.709 30.0701 144.407 30.3273 144.946 30.8416C145.509 31.3314 145.791 31.9681 145.791 32.7518C145.791 33.5355 145.509 34.1845 144.946 34.6988C144.407 35.2131 143.709 35.4703 142.852 35.4703ZM140.501 56.52V38.299H145.203V56.52H140.501ZM148.642 56.52V30.0701H153.344V45.6829L159.81 38.299H165.393L157.936 46.6013L166.606 56.52H160.728L153.344 47.3728V56.52H148.642ZM179.807 56.9609C177.211 56.9609 174.983 56.4098 173.121 55.3077C171.26 54.1812 169.827 52.626 168.823 50.6423C167.819 48.634 167.317 46.3197 167.317 43.6992C167.317 41.0787 167.819 38.7643 168.823 36.756C169.827 34.7478 171.26 33.1804 173.121 32.0538C174.983 30.9273 177.211 30.364 179.807 30.364C182.893 30.364 185.416 31.1354 187.375 32.6784C189.359 34.1968 190.595 36.3397 191.085 39.1072H185.905C185.587 37.7112 184.901 36.6214 183.848 35.8377C182.82 35.0295 181.448 34.6254 179.734 34.6254C177.358 34.6254 175.497 35.4336 174.15 37.0499C172.803 38.6663 172.129 40.8827 172.129 43.6992C172.129 46.5156 172.803 48.732 174.15 50.3484C175.497 51.9403 177.358 52.7362 179.734 52.7362C181.448 52.7362 182.82 52.3689 183.848 51.6341C184.901 50.8749 185.587 49.8341 185.905 48.5116H191.085C190.595 51.1566 189.359 53.226 187.375 54.72C185.416 56.2139 182.893 56.9609 179.807 56.9609ZM199.95 56.9609C198.382 56.9609 197.097 56.7159 196.092 56.2261C195.088 55.7118 194.341 55.0383 193.852 54.2057C193.362 53.373 193.117 52.4546 193.117 51.4505C193.117 49.7606 193.778 48.3891 195.101 47.336C196.423 46.2829 198.407 45.7564 201.052 45.7564H205.681V45.3155C205.681 44.0665 205.325 43.1481 204.615 42.5603C203.905 41.9726 203.023 41.6787 201.97 41.6787C201.015 41.6787 200.182 41.9113 199.472 42.3767C198.762 42.8175 198.321 43.4787 198.15 44.3604H193.558C193.68 43.0379 194.121 41.8868 194.88 40.9072C195.664 39.9276 196.668 39.1806 197.892 38.6663C199.117 38.1275 200.488 37.8581 202.007 37.8581C204.603 37.8581 206.648 38.5071 208.142 39.8051C209.636 41.1031 210.383 42.9399 210.383 45.3155V56.52H206.378L205.938 53.5811C205.399 54.5608 204.64 55.369 203.66 56.0057C202.705 56.6425 201.468 56.9609 199.95 56.9609ZM201.015 53.2873C202.362 53.2873 203.403 52.8464 204.138 51.9648C204.897 51.0831 205.374 49.9933 205.57 48.6953H201.566C200.317 48.6953 199.423 48.9279 198.884 49.3932C198.346 49.8341 198.076 50.3851 198.076 51.0464C198.076 51.7566 198.346 52.3076 198.884 52.6995C199.423 53.0913 200.133 53.2873 201.015 53.2873ZM213.401 56.52V38.299H217.588L218.029 41.7154C218.69 40.5399 219.584 39.6092 220.711 38.9235C221.862 38.2132 223.209 37.8581 224.752 37.8581V42.8175H223.429C222.401 42.8175 221.482 42.9767 220.674 43.2951C219.866 43.6134 219.229 44.1645 218.764 44.9482C218.323 45.7319 218.103 46.8217 218.103 48.2177V56.52H213.401ZM235.027 56.9609C233.19 56.9609 231.561 56.569 230.141 55.7853C228.72 55.0016 227.606 53.8995 226.798 52.4791C225.99 51.0586 225.586 49.4177 225.586 47.5564C225.586 45.6707 225.978 43.993 226.761 42.5236C227.569 41.0542 228.671 39.9153 230.067 39.1072C231.488 38.2745 233.153 37.8581 235.064 37.8581C236.851 37.8581 238.431 38.25 239.803 39.0337C241.174 39.8174 242.239 40.895 242.999 42.2665C243.782 43.6134 244.174 45.1196 244.174 46.785C244.174 47.0544 244.162 47.336 244.137 47.6299C244.137 47.9238 244.125 48.2299 244.101 48.5483H230.251C230.349 49.9688 230.839 51.0831 231.721 51.8913C232.627 52.6995 233.717 53.1036 234.99 53.1036C235.945 53.1036 236.741 52.8954 237.378 52.4791C238.039 52.0382 238.529 51.4749 238.847 50.7892H243.623C243.28 51.9403 242.705 52.9934 241.896 53.9485C241.113 54.8791 240.133 55.6139 238.958 56.1527C237.807 56.6915 236.496 56.9609 235.027 56.9609ZM235.064 41.6787C233.912 41.6787 232.896 42.0093 232.014 42.6705C231.133 43.3073 230.57 44.2869 230.325 45.6094H239.398C239.325 44.4094 238.884 43.4542 238.076 42.744C237.268 42.0338 236.264 41.6787 235.064 41.6787Z" fill="#3F38FF"/>
</svg>
