<svg width="24" height="24" viewBox="0 0 24 24" fill="none" xmlns="http://www.w3.org/2000/svg">
<path fill-rule="evenodd" clip-rule="evenodd" d="M7.81 2.00012H16.191C19.28 2.00012 21 3.78012 21 6.83012V17.1601C21 20.2601 19.28 22.0001 16.191 22.0001H7.81C4.77 22.0001 3 20.2601 3 17.1601V6.83012C3 3.78012 4.77 2.00012 7.81 2.00012ZM8.08 6.66012V6.65012H11.069C11.5 6.65012 11.85 7.00012 11.85 7.42912C11.85 7.87012 11.5 8.22012 11.069 8.22012H8.08C7.649 8.22012 7.3 7.87012 7.3 7.44012C7.3 7.01012 7.649 6.66012 8.08 6.66012ZM8.08 12.7401H15.92C16.35 12.7401 16.7 12.3901 16.7 11.9601C16.7 11.5301 16.35 11.1791 15.92 11.1791H8.08C7.649 11.1791 7.3 11.5301 7.3 11.9601C7.3 12.3901 7.649 12.7401 8.08 12.7401ZM8.08 17.3101H15.92C16.319 17.2701 16.62 16.9291 16.62 16.5301C16.62 16.1201 16.319 15.7801 15.92 15.7401H8.08C7.78 15.7101 7.49 15.8501 7.33 16.1101C7.17 16.3601 7.17 16.6901 7.33 16.9501C7.49 17.2001 7.78 17.3501 8.08 17.3101Z" fill="#1C1C1C"/>
</svg>
