<svg width="24" height="25" viewBox="0 0 24 25" fill="none" xmlns="http://www.w3.org/2000/svg">
<path fill-rule="evenodd" clip-rule="evenodd" d="M12.1535 17.14L14.995 14.27C15.2822 13.97 15.2822 13.5 14.9851 13.21C14.698 12.92 14.2327 12.92 13.9455 13.21L12.3713 14.81V9.99C12.3713 9.57 12.0446 9.24 11.6386 9.24C11.2327 9.24 10.896 9.57 10.896 9.99V14.81L9.32178 13.21C9.03465 12.92 8.56931 12.92 8.28218 13.21C7.99505 13.5 7.99505 13.97 8.28218 14.27L11.1139 17.14C11.1832 17.21 11.2624 17.26 11.3515 17.3C11.4406 17.34 11.5396 17.36 11.6386 17.36C11.7376 17.36 11.8267 17.34 11.9158 17.3C12.005 17.26 12.0842 17.21 12.1535 17.14ZM19.3282 9.52561C19.5609 9.52292 19.8143 9.52 20.0446 9.52C20.302 9.52 20.5 9.72 20.5 9.97V18.01C20.5 20.49 18.5 22.5 16.0446 22.5H8.17327C5.58911 22.5 3.5 20.39 3.5 17.79V7.01C3.5 4.53 5.4901 2.5 7.96535 2.5H13.2525C13.5 2.5 13.7079 2.71 13.7079 2.96V6.18C13.7079 8.01 15.1931 9.51 17.0149 9.52C17.4333 9.52 17.8077 9.52318 18.1346 9.52595C18.3878 9.52809 18.6125 9.53 18.8069 9.53C18.9479 9.53 19.1306 9.52789 19.3282 9.52561ZM19.6045 8.0661C18.7916 8.0691 17.8322 8.0661 17.1421 8.0591C16.047 8.0591 15.145 7.1481 15.145 6.0421V3.4061C15.145 2.9751 15.6629 2.7611 15.9579 3.0721C16.7203 3.87199 17.8873 5.0978 18.8738 6.13395C19.2735 6.55379 19.6436 6.94249 19.945 7.2591C20.2342 7.5621 20.0223 8.0651 19.6045 8.0661Z" fill="#3F38FF"/>
</svg>
