<svg width="24" height="24" viewBox="0 0 24 24" fill="none" xmlns="http://www.w3.org/2000/svg">
<path fill-rule="evenodd" clip-rule="evenodd" d="M9.89535 11.2301C9.45785 11.2301 9.11192 11.5701 9.11192 12.0001C9.11192 12.4201 9.45785 12.7701 9.89535 12.7701H16V17.5501C16 20.0001 13.9753 22.0001 11.4724 22.0001H6.51744C4.02471 22.0001 2 20.0101 2 17.5601V6.45012C2 3.99012 4.03488 2.00012 6.52762 2.00012H11.4927C13.9753 2.00012 16 3.99012 16 6.44012V11.2301H9.89535ZM19.6302 8.54032L22.5502 11.4503C22.7002 11.6003 22.7802 11.7903 22.7802 12.0003C22.7802 12.2003 22.7002 12.4003 22.5502 12.5403L19.6302 15.4503C19.4802 15.6003 19.2802 15.6803 19.0902 15.6803C18.8902 15.6803 18.6902 15.6003 18.5402 15.4503C18.2402 15.1503 18.2402 14.6603 18.5402 14.3603L20.1402 12.7703H16.0002V11.2303H20.1402L18.5402 9.64032C18.2402 9.34032 18.2402 8.85032 18.5402 8.55032C18.8402 8.24032 19.3302 8.24032 19.6302 8.54032Z" fill="#1C1C1C"/>
</svg>
