<svg width="140" height="150" viewBox="0 0 140 150" fill="none" xmlns="http://www.w3.org/2000/svg">
<rect x="0.25" y="0.25" width="139.5" height="149.5" rx="7.75" stroke="#777777" stroke-width="0.5"/>
<g opacity="0.7">
<path fill-rule="evenodd" clip-rule="evenodd" d="M58.425 35.11C58.425 32.0402 59.6445 29.096 61.8152 26.9253C63.986 24.7545 66.9301 23.535 70 23.535C73.0699 23.535 76.014 24.7545 78.1847 26.9253C80.3555 29.096 81.575 32.0402 81.575 35.11C81.575 38.1799 80.3555 41.1241 78.1847 43.2948C76.014 45.4655 73.0699 46.685 70 46.685C66.9301 46.685 63.986 45.4655 61.8152 43.2948C59.6445 41.1241 58.425 38.1799 58.425 35.11ZM47.23 54.07C49.5862 51.8332 52.7111 50.5862 55.96 50.5862C59.2088 50.5862 62.3338 51.8332 64.69 54.07L64.74 54.12L70 59.38L75.265 54.12L75.315 54.07C77.6707 51.8362 80.7935 50.5909 84.04 50.5909C87.2865 50.5909 90.4093 51.8362 92.765 54.07C93.9351 55.1798 94.8672 56.5159 95.5047 57.9973C96.1421 59.4786 96.4716 61.0741 96.473 62.6868C96.4744 64.2995 96.1477 65.8956 95.5129 67.378C94.878 68.8605 93.9482 70.1983 92.78 71.31L71.74 91.76C71.2733 92.2136 70.6482 92.4674 69.9975 92.4674C69.3467 92.4674 68.7216 92.2136 68.255 91.76L47.22 71.31C46.0523 70.1987 45.1227 68.8614 44.4879 67.3796C43.8531 65.8979 43.5262 64.3024 43.5271 62.6904C43.528 61.0783 43.8568 59.4833 44.4933 58.0022C45.1299 56.5212 46.061 55.1801 47.23 54.07Z" fill="#1C1C1C"/>
</g>
<path d="M38.66 129V114.9H44.64C46.1467 114.9 47.3 115.267 48.1 116C48.9133 116.72 49.32 117.72 49.32 119C49.32 120.28 48.9133 121.287 48.1 122.02C47.3 122.753 46.1467 123.12 44.64 123.12H40.74V129H38.66ZM40.74 121.46H44.42C45.3667 121.46 46.08 121.247 46.56 120.82C47.04 120.393 47.28 119.787 47.28 119C47.28 118.227 47.04 117.627 46.56 117.2C46.08 116.773 45.3667 116.56 44.42 116.56H40.74V121.46ZM54.6158 129.18C53.7224 129.18 52.9424 128.973 52.2758 128.56C51.6091 128.147 51.0891 127.547 50.7158 126.76C50.3558 125.973 50.1758 125.04 50.1758 123.96C50.1758 122.867 50.3558 121.933 50.7158 121.16C51.0891 120.387 51.6091 119.793 52.2758 119.38C52.9424 118.953 53.7224 118.74 54.6158 118.74C55.4958 118.74 56.2624 118.96 56.9158 119.4C57.5691 119.84 58.0024 120.44 58.2158 121.2H57.9958L58.1958 118.92H60.1558C60.1158 119.333 60.0758 119.747 60.0358 120.16C60.0091 120.56 59.9958 120.953 59.9958 121.34V129H57.9758V126.76H58.1958C57.9824 127.507 57.5424 128.1 56.8758 128.54C56.2224 128.967 55.4691 129.18 54.6158 129.18ZM55.1158 127.6C55.9824 127.6 56.6758 127.293 57.1958 126.68C57.7291 126.067 57.9958 125.16 57.9958 123.96C57.9958 122.76 57.7291 121.86 57.1958 121.26C56.6758 120.647 55.9824 120.34 55.1158 120.34C54.2358 120.34 53.5291 120.647 52.9958 121.26C52.4758 121.86 52.2158 122.76 52.2158 123.96C52.2158 125.16 52.4758 126.067 52.9958 126.68C53.5158 127.293 54.2224 127.6 55.1158 127.6ZM66.4633 129.18C65.3699 129.18 64.5433 128.887 63.9833 128.3C63.4233 127.7 63.1433 126.807 63.1433 125.62V120.48H61.1833V118.92H63.1433V116.26L65.1633 115.72V118.92H67.9633V120.48H65.1633V125.44C65.1633 126.187 65.2966 126.72 65.5633 127.04C65.8299 127.36 66.2166 127.52 66.7233 127.52C66.9766 127.52 67.1966 127.5 67.3833 127.46C67.5833 127.407 67.7633 127.347 67.9233 127.28V128.92C67.7233 129 67.4899 129.06 67.2233 129.1C66.9566 129.153 66.7033 129.18 66.4633 129.18ZM69.4089 129V118.92H71.4289V129H69.4089ZM69.2489 116.82V114.72H71.5889V116.82H69.2489ZM78.6494 129.18C77.0227 129.18 75.7427 128.72 74.8094 127.8C73.876 126.88 73.4094 125.607 73.4094 123.98C73.4094 122.927 73.6094 122.007 74.0094 121.22C74.4227 120.433 74.9894 119.827 75.7094 119.4C76.4427 118.96 77.2894 118.74 78.2494 118.74C79.196 118.74 79.9894 118.94 80.6294 119.34C81.2694 119.74 81.756 120.307 82.0894 121.04C82.4227 121.76 82.5894 122.613 82.5894 123.6V124.24H74.9894V123.08H81.2094L80.8694 123.34C80.8694 122.34 80.6427 121.567 80.1894 121.02C79.7494 120.46 79.1094 120.18 78.2694 120.18C77.336 120.18 76.616 120.507 76.1094 121.16C75.6027 121.8 75.3494 122.687 75.3494 123.82V124.02C75.3494 125.207 75.636 126.1 76.2094 126.7C76.796 127.3 77.6227 127.6 78.6894 127.6C79.276 127.6 79.8227 127.52 80.3294 127.36C80.8494 127.187 81.3427 126.907 81.8094 126.52L82.4694 127.9C82.0027 128.313 81.436 128.633 80.7694 128.86C80.1027 129.073 79.396 129.18 78.6494 129.18ZM84.5073 129V121.34C84.5073 120.953 84.4873 120.56 84.4473 120.16C84.4207 119.747 84.3873 119.333 84.3473 118.92H86.3073L86.4873 121.04H86.2473C86.554 120.293 87.0273 119.727 87.6673 119.34C88.3073 118.94 89.0473 118.74 89.8873 118.74C91.074 118.74 91.9673 119.067 92.5673 119.72C93.1807 120.373 93.4873 121.387 93.4873 122.76V129H91.4673V122.88C91.4673 121.987 91.2873 121.347 90.9273 120.96C90.5807 120.56 90.0473 120.36 89.3273 120.36C88.474 120.36 87.794 120.627 87.2873 121.16C86.7807 121.68 86.5273 122.387 86.5273 123.28V129H84.5073ZM99.8828 129.18C98.7895 129.18 97.9628 128.887 97.4028 128.3C96.8428 127.7 96.5628 126.807 96.5628 125.62V120.48H94.6028V118.92H96.5628V116.26L98.5828 115.72V118.92H101.383V120.48H98.5828V125.44C98.5828 126.187 98.7161 126.72 98.9828 127.04C99.2495 127.36 99.6361 127.52 100.143 127.52C100.396 127.52 100.616 127.5 100.803 127.46C101.003 127.407 101.183 127.347 101.343 127.28V128.92C101.143 129 100.909 129.06 100.643 129.1C100.376 129.153 100.123 129.18 99.8828 129.18Z" fill="#1C1C1C"/>
</svg>
