<svg width="240" height="78" viewBox="0 0 240 78" fill="none" xmlns="http://www.w3.org/2000/svg">
<rect width="239.44" height="77.7634" fill="white"/>
<path fill-rule="evenodd" clip-rule="evenodd" d="M21.3485 18.3712C21.3485 15.6206 22.4412 12.9826 24.3862 11.0377C26.3311 9.09268 28.9691 8 31.7197 8C34.4703 8 37.1083 9.09268 39.0533 11.0377C40.9982 12.9826 42.0909 15.6206 42.0909 18.3712C42.0909 21.1218 40.9982 23.7598 39.0533 25.7047C37.1083 27.6497 34.4703 28.7424 31.7197 28.7424C28.9691 28.7424 26.3311 27.6497 24.3862 25.7047C22.4412 23.7598 21.3485 21.1218 21.3485 18.3712ZM11.3178 35.3594C13.429 33.3552 16.2289 32.2378 19.1399 32.2378C22.0508 32.2378 24.8508 33.3552 26.9619 35.3594L27.0067 35.4042L31.7197 40.1171L36.4372 35.4042L36.4819 35.3594C38.5927 33.3578 41.3907 32.2421 44.2995 32.2421C47.2084 32.2421 50.0064 33.3578 52.1171 35.3594C53.1656 36.3537 54.0008 37.5509 54.5719 38.8782C55.1431 40.2055 55.4383 41.635 55.4395 43.08C55.4408 44.5249 55.1481 45.955 54.5792 47.2833C54.0104 48.6116 53.1773 49.8102 52.1306 50.8064L33.2787 69.1296C32.8606 69.536 32.3005 69.7634 31.7175 69.7634C31.1344 69.7634 30.5743 69.536 30.1562 69.1296L11.3088 50.8064C10.2625 49.8106 9.42968 48.6125 8.86087 47.2848C8.29205 45.9571 7.99916 44.5276 8 43.0832C8.00084 41.6388 8.29539 40.2096 8.86574 38.8826C9.4361 37.5556 10.2704 36.3539 11.3178 35.3594Z" fill="#3F38FF"/>
<path d="M41.5758 18.2727C41.5758 23.7161 37.1631 28.1287 31.7198 28.1287C26.2765 28.1287 21.8638 23.7161 21.8638 18.2727C21.8638 12.8294 26.2765 8.41675 31.7198 8.41675C37.1631 8.41675 41.5758 12.8294 41.5758 18.2727Z" fill="#3F38FF"/>
<path d="M103.583 52.3225C100.987 52.3225 98.7582 51.7714 96.8969 50.6694C95.0356 49.5428 93.6029 47.9876 92.5987 46.0039C91.5946 43.9957 91.0926 41.6813 91.0926 39.0608C91.0926 36.4403 91.5946 34.1259 92.5987 32.1177C93.6029 30.1094 95.0356 28.542 96.8969 27.4155C98.7582 26.2889 100.987 25.7256 103.583 25.7256C106.669 25.7256 109.191 26.4971 111.15 28.04C113.134 29.5584 114.371 31.7013 114.861 34.4688H109.681C109.363 33.0728 108.677 31.983 107.624 31.1993C106.595 30.3911 105.224 29.987 103.509 29.987C101.134 29.987 99.2725 30.7952 97.9255 32.4116C96.5785 34.028 95.905 36.2444 95.905 39.0608C95.905 41.8772 96.5785 44.0936 97.9255 45.71C99.2725 47.3019 101.134 48.0978 103.509 48.0978C105.224 48.0978 106.595 47.7305 107.624 46.9958C108.677 46.2366 109.363 45.1957 109.681 43.8732H114.861C114.371 46.5182 113.134 48.5877 111.15 50.0816C109.191 51.5755 106.669 52.3225 103.583 52.3225ZM117.443 51.8817V25.4317H122.146V51.8817H117.443ZM128.016 30.8319C127.159 30.8319 126.448 30.5748 125.885 30.0605C125.346 29.5462 125.077 28.8972 125.077 28.1135C125.077 27.3298 125.346 26.693 125.885 26.2032C126.448 25.6889 127.159 25.4317 128.016 25.4317C128.873 25.4317 129.571 25.6889 130.11 26.2032C130.673 26.693 130.955 27.3298 130.955 28.1135C130.955 28.8972 130.673 29.5462 130.11 30.0605C129.571 30.5748 128.873 30.8319 128.016 30.8319ZM125.665 51.8817V33.6606H130.367V51.8817H125.665ZM133.805 51.8817V25.4317H138.508V41.0445L144.973 33.6606H150.557L143.1 41.9629L151.769 51.8817H145.891L138.508 42.7344V51.8817H133.805ZM164.971 52.3225C162.375 52.3225 160.146 51.7714 158.285 50.6694C156.423 49.5428 154.991 47.9876 153.987 46.0039C152.982 43.9957 152.48 41.6813 152.48 39.0608C152.48 36.4403 152.982 34.1259 153.987 32.1177C154.991 30.1094 156.423 28.542 158.285 27.4155C160.146 26.2889 162.375 25.7256 164.971 25.7256C168.057 25.7256 170.579 26.4971 172.538 28.04C174.522 29.5584 175.759 31.7013 176.249 34.4688H171.069C170.75 33.0728 170.065 31.983 169.012 31.1993C167.983 30.3911 166.612 29.987 164.897 29.987C162.522 29.987 160.66 30.7952 159.313 32.4116C157.966 34.028 157.293 36.2444 157.293 39.0608C157.293 41.8772 157.966 44.0936 159.313 45.71C160.66 47.3019 162.522 48.0978 164.897 48.0978C166.612 48.0978 167.983 47.7305 169.012 46.9958C170.065 46.2366 170.75 45.1957 171.069 43.8732H176.249C175.759 46.5182 174.522 48.5877 172.538 50.0816C170.579 51.5755 168.057 52.3225 164.971 52.3225ZM185.113 52.3225C183.546 52.3225 182.26 52.0776 181.256 51.5878C180.252 51.0735 179.505 50.4 179.015 49.5673C178.525 48.7346 178.28 47.8162 178.28 46.8121C178.28 45.1222 178.942 43.7508 180.264 42.6977C181.587 41.6446 183.57 41.118 186.215 41.118H190.844V40.6772C190.844 39.4281 190.489 38.5097 189.779 37.922C189.068 37.3342 188.187 37.0403 187.134 37.0403C186.179 37.0403 185.346 37.273 184.636 37.7383C183.925 38.1791 183.485 38.8404 183.313 39.722H178.721C178.844 38.3995 179.284 37.2485 180.044 36.2689C180.827 35.2892 181.831 34.5423 183.056 34.028C184.281 33.4892 185.652 33.2198 187.17 33.2198C189.766 33.2198 191.811 33.8688 193.305 35.1668C194.799 36.4648 195.546 38.3016 195.546 40.6772V51.8817H191.542L191.101 48.9428C190.562 49.9224 189.803 50.7306 188.824 51.3673C187.868 52.0041 186.632 52.3225 185.113 52.3225ZM186.179 48.6489C187.526 48.6489 188.566 48.2081 189.301 47.3264C190.06 46.4447 190.538 45.3549 190.734 44.0569H186.73C185.481 44.0569 184.587 44.2895 184.048 44.7549C183.509 45.1957 183.24 45.7467 183.24 46.408C183.24 47.1182 183.509 47.6693 184.048 48.0611C184.587 48.453 185.297 48.6489 186.179 48.6489ZM198.564 51.8817V33.6606H202.752L203.193 37.077C203.854 35.9015 204.748 34.9708 205.874 34.2851C207.026 33.5749 208.373 33.2198 209.915 33.2198V38.1791H208.593C207.564 38.1791 206.646 38.3383 205.838 38.6567C205.03 38.9751 204.393 39.5261 203.927 40.3098C203.487 41.0935 203.266 42.1833 203.266 43.5793V51.8817H198.564ZM220.19 52.3225C218.354 52.3225 216.725 51.9306 215.304 51.1469C213.884 50.3632 212.77 49.2612 211.961 47.8407C211.153 46.4202 210.749 44.7794 210.749 42.9181C210.749 41.0323 211.141 39.3547 211.925 37.8852C212.733 36.4158 213.835 35.277 215.231 34.4688C216.651 33.6361 218.317 33.2198 220.227 33.2198C222.015 33.2198 223.595 33.6116 224.966 34.3953C226.337 35.179 227.403 36.2566 228.162 37.6281C228.946 38.9751 229.338 40.4812 229.338 42.1466C229.338 42.416 229.325 42.6977 229.301 42.9915C229.301 43.2854 229.289 43.5916 229.264 43.9099H215.415C215.513 45.3304 216.002 46.4447 216.884 47.2529C217.79 48.0611 218.88 48.4652 220.154 48.4652C221.109 48.4652 221.905 48.257 222.541 47.8407C223.203 47.3999 223.693 46.8366 224.011 46.1508H228.787C228.444 47.3019 227.868 48.355 227.06 49.3101C226.276 50.2408 225.297 50.9755 224.121 51.5143C222.97 52.0531 221.66 52.3225 220.19 52.3225ZM220.227 37.0403C219.076 37.0403 218.06 37.3709 217.178 38.0322C216.296 38.6689 215.733 39.6486 215.488 40.9711H224.562C224.488 39.771 224.048 38.8159 223.239 38.1057C222.431 37.3954 221.427 37.0403 220.227 37.0403Z" fill="#3F38FF"/>
</svg>
