<svg width="240" height="78" viewBox="0 0 240 78" fill="none" xmlns="http://www.w3.org/2000/svg">
<rect width="240" height="78" fill="white"/>
<path fill-rule="evenodd" clip-rule="evenodd" d="M21.6288 18.4895C21.6288 15.7389 22.7215 13.101 24.6664 11.156C26.6114 9.21102 29.2494 8.11835 32 8.11835C34.7506 8.11835 37.3885 9.21102 39.3335 11.156C41.2785 13.101 42.3712 15.7389 42.3712 18.4895C42.3712 21.2402 41.2785 23.8781 39.3335 25.8231C37.3885 27.7681 34.7506 28.8607 32 28.8607C29.2494 28.8607 26.6114 27.7681 24.6664 25.8231C22.7215 23.8781 21.6288 21.2402 21.6288 18.4895ZM11.5981 35.4777C13.7092 33.4735 16.5092 32.3562 19.4201 32.3562C22.3311 32.3562 25.131 33.4735 27.2422 35.4777L27.287 35.5225L32 40.2355L36.7174 35.5225L36.7622 35.4777C38.8729 33.4762 41.671 32.3604 44.5798 32.3604C47.4887 32.3604 50.2867 33.4762 52.3974 35.4777C53.4458 36.472 54.281 37.6693 54.8522 38.9965C55.4234 40.3238 55.7185 41.7534 55.7198 43.1983C55.7211 44.6433 55.4284 46.0734 54.8595 47.4017C54.2907 48.7299 53.4576 49.9286 52.4109 50.9247L33.559 69.2479C33.1409 69.6544 32.5808 69.8817 31.9977 69.8817C31.4147 69.8817 30.8546 69.6544 30.4365 69.2479L11.5891 50.9247C10.5428 49.929 9.70996 48.7308 9.14114 47.4031C8.57233 46.0754 8.27944 44.646 8.28028 43.2015C8.28111 41.7571 8.57566 40.328 9.14602 39.001C9.71637 37.6739 10.5506 36.4723 11.5981 35.4777Z" fill="#3F38FF"/>
<path d="M41.856 18.3911C41.856 23.8344 37.4434 28.2471 32 28.2471C26.5567 28.2471 22.144 23.8344 22.144 18.3911C22.144 12.9478 26.5567 8.5351 32 8.5351C37.4434 8.5351 41.856 12.9478 41.856 18.3911Z" fill="#3F38FF"/>
<path d="M103.863 52.4408C101.267 52.4408 99.0384 51.8898 97.1771 50.7877C95.3158 49.6611 93.8831 48.106 92.879 46.1222C91.8749 44.114 91.3728 41.7996 91.3728 39.1791C91.3728 36.5586 91.8749 34.2443 92.879 32.236C93.8831 30.2278 95.3158 28.6604 97.1771 27.5338C99.0384 26.4073 101.267 25.844 103.863 25.844C106.949 25.844 109.471 26.6154 111.431 28.1583C113.414 29.6768 114.651 31.8197 115.141 34.5871H109.961C109.643 33.1912 108.957 32.1013 107.904 31.3176C106.875 30.5094 105.504 30.1053 103.79 30.1053C101.414 30.1053 99.5527 30.9135 98.2057 32.5299C96.8588 34.1463 96.1853 36.3627 96.1853 39.1791C96.1853 41.9956 96.8588 44.212 98.2057 45.8284C99.5527 47.4202 101.414 48.2162 103.79 48.2162C105.504 48.2162 106.875 47.8488 107.904 47.1141C108.957 46.3549 109.643 45.314 109.961 43.9916H115.141C114.651 46.6365 113.414 48.706 111.431 50.1999C109.471 51.6939 106.949 52.4408 103.863 52.4408ZM117.724 52V25.5501H122.426V52H117.724ZM128.296 30.9503C127.439 30.9503 126.729 30.6931 126.165 30.1788C125.626 29.6645 125.357 29.0155 125.357 28.2318C125.357 27.4481 125.626 26.8113 126.165 26.3215C126.729 25.8072 127.439 25.5501 128.296 25.5501C129.153 25.5501 129.851 25.8072 130.39 26.3215C130.953 26.8113 131.235 27.4481 131.235 28.2318C131.235 29.0155 130.953 29.6645 130.39 30.1788C129.851 30.6931 129.153 30.9503 128.296 30.9503ZM125.945 52V33.7789H130.647V52H125.945ZM134.086 52V25.5501H138.788V41.1629L145.253 33.7789H150.837L143.38 42.0813L152.05 52H146.172L138.788 42.8527V52H134.086ZM165.251 52.4408C162.655 52.4408 160.426 51.8898 158.565 50.7877C156.704 49.6611 155.271 48.106 154.267 46.1222C153.263 44.114 152.761 41.7996 152.761 39.1791C152.761 36.5586 153.263 34.2443 154.267 32.236C155.271 30.2278 156.704 28.6604 158.565 27.5338C160.426 26.4073 162.655 25.844 165.251 25.844C168.337 25.844 170.859 26.6154 172.819 28.1583C174.802 29.6768 176.039 31.8197 176.529 34.5871H171.349C171.031 33.1912 170.345 32.1013 169.292 31.3176C168.263 30.5094 166.892 30.1053 165.177 30.1053C162.802 30.1053 160.941 30.9135 159.594 32.5299C158.247 34.1463 157.573 36.3627 157.573 39.1791C157.573 41.9956 158.247 44.212 159.594 45.8284C160.941 47.4202 162.802 48.2162 165.177 48.2162C166.892 48.2162 168.263 47.8488 169.292 47.1141C170.345 46.3549 171.031 45.314 171.349 43.9916H176.529C176.039 46.6365 174.802 48.706 172.819 50.1999C170.859 51.6939 168.337 52.4408 165.251 52.4408ZM185.393 52.4408C183.826 52.4408 182.54 52.1959 181.536 51.7061C180.532 51.1918 179.785 50.5183 179.295 49.6856C178.805 48.8529 178.561 47.9345 178.561 46.9304C178.561 45.2406 179.222 43.8691 180.544 42.816C181.867 41.7629 183.851 41.2364 186.496 41.2364H191.124V40.7955C191.124 39.5465 190.769 38.6281 190.059 38.0403C189.349 37.4525 188.467 37.1587 187.414 37.1587C186.459 37.1587 185.626 37.3913 184.916 37.8566C184.206 38.2975 183.765 38.9587 183.593 39.8404H179.001C179.124 38.5179 179.565 37.3668 180.324 36.3872C181.108 35.4076 182.112 34.6606 183.336 34.1463C184.561 33.6075 185.932 33.3381 187.451 33.3381C190.047 33.3381 192.092 33.9871 193.586 35.2851C195.08 36.5831 195.826 38.4199 195.826 40.7955V52H191.822L191.381 49.0611C190.843 50.0407 190.083 50.8489 189.104 51.4857C188.149 52.1225 186.912 52.4408 185.393 52.4408ZM186.459 48.7672C187.806 48.7672 188.847 48.3264 189.581 47.4447C190.341 46.5631 190.818 45.4732 191.014 44.1752H187.01C185.761 44.1752 184.867 44.4079 184.328 44.8732C183.789 45.314 183.52 45.8651 183.52 46.5263C183.52 47.2366 183.789 47.7876 184.328 48.1795C184.867 48.5713 185.577 48.7672 186.459 48.7672ZM198.844 52V33.7789H203.032L203.473 37.1954C204.134 36.0198 205.028 35.0892 206.155 34.4035C207.306 33.6932 208.653 33.3381 210.196 33.3381V38.2975H208.873C207.845 38.2975 206.926 38.4567 206.118 38.775C205.31 39.0934 204.673 39.6445 204.208 40.4282C203.767 41.2119 203.547 42.3017 203.547 43.6977V52H198.844ZM220.471 52.4408C218.634 52.4408 217.005 52.049 215.585 51.2653C214.164 50.4816 213.05 49.3795 212.242 47.959C211.434 46.5386 211.029 44.8977 211.029 43.0364C211.029 41.1506 211.421 39.473 212.205 38.0036C213.013 36.5341 214.115 35.3953 215.511 34.5871C216.932 33.7545 218.597 33.3381 220.507 33.3381C222.295 33.3381 223.875 33.73 225.246 34.5137C226.618 35.2974 227.683 36.375 228.442 37.7464C229.226 39.0934 229.618 40.5996 229.618 42.265C229.618 42.5344 229.606 42.816 229.581 43.1099C229.581 43.4038 229.569 43.7099 229.544 44.0283H215.695C215.793 45.4487 216.283 46.5631 217.164 47.3713C218.071 48.1795 219.16 48.5836 220.434 48.5836C221.389 48.5836 222.185 48.3754 222.822 47.959C223.483 47.5182 223.973 46.9549 224.291 46.2692H229.067C228.724 47.4202 228.148 48.4733 227.34 49.4285C226.557 50.3591 225.577 51.0938 224.401 51.6326C223.25 52.1714 221.94 52.4408 220.471 52.4408ZM220.507 37.1587C219.356 37.1587 218.34 37.4893 217.458 38.1505C216.577 38.7873 216.013 39.7669 215.768 41.0894H224.842C224.769 39.8894 224.328 38.9342 223.52 38.224C222.712 37.5138 221.707 37.1587 220.507 37.1587Z" fill="#3F38FF"/>
</svg>
